<mxfile host="app.diagrams.net" modified="2022-11-12T06:55:16.308Z" agent="5.0 (Windows NT 10.0; Win64; x64) AppleWebKit/537.36 (KHTML, like Gecko) Chrome/105.0.0.0 Safari/537.36" etag="kPyUPGKIekiX_lzr84XO" version="20.5.3" type="github">
  <diagram id="j_PgzRQK8NAFGRGaCp-f" name="第 1 页">
    <mxGraphModel dx="1043" dy="581" grid="0" gridSize="10" guides="1" tooltips="1" connect="1" arrows="1" fold="1" page="1" pageScale="1" pageWidth="827" pageHeight="1169" math="0" shadow="0">
      <root>
        <mxCell id="0" />
        <mxCell id="1" parent="0" />
        <mxCell id="i5y0oGPPUUDTd2HLa1VV-6" value="" style="whiteSpace=wrap;html=1;fillColor=#dae8fc;strokeColor=#6c8ebf;rounded=1;sketch=1;" vertex="1" parent="1">
          <mxGeometry x="145" y="737" width="210" height="130" as="geometry" />
        </mxCell>
        <mxCell id="r1hanVP5AK98Bbvc3f5i-1" value="" style="shape=cylinder3;whiteSpace=wrap;html=1;boundedLbl=1;backgroundOutline=1;size=15;sketch=1;fillColor=#F8CECC;strokeColor=#F8CECC;" parent="1" vertex="1">
          <mxGeometry x="100" y="300" width="70" height="60" as="geometry" />
        </mxCell>
        <mxCell id="r1hanVP5AK98Bbvc3f5i-7" style="edgeStyle=orthogonalEdgeStyle;rounded=0;orthogonalLoop=1;jettySize=auto;html=1;exitX=0.5;exitY=1;exitDx=0;exitDy=0;entryX=0.5;entryY=0;entryDx=0;entryDy=0;entryPerimeter=0;sketch=1;" parent="1" source="r1hanVP5AK98Bbvc3f5i-2" target="r1hanVP5AK98Bbvc3f5i-1" edge="1">
          <mxGeometry relative="1" as="geometry" />
        </mxCell>
        <mxCell id="r1hanVP5AK98Bbvc3f5i-2" value="1" style="rounded=1;whiteSpace=wrap;html=1;sketch=1;" parent="1" vertex="1">
          <mxGeometry x="105" y="210" width="60" height="50" as="geometry" />
        </mxCell>
        <mxCell id="r1hanVP5AK98Bbvc3f5i-9" style="edgeStyle=orthogonalEdgeStyle;shape=connector;rounded=0;sketch=1;orthogonalLoop=1;jettySize=auto;html=1;exitX=0.5;exitY=1;exitDx=0;exitDy=0;entryX=0.5;entryY=0;entryDx=0;entryDy=0;entryPerimeter=0;labelBackgroundColor=default;strokeColor=default;fontFamily=Helvetica;fontSize=11;fontColor=default;endArrow=classic;" parent="1" source="r1hanVP5AK98Bbvc3f5i-3" target="r1hanVP5AK98Bbvc3f5i-5" edge="1">
          <mxGeometry relative="1" as="geometry" />
        </mxCell>
        <mxCell id="r1hanVP5AK98Bbvc3f5i-3" value="2" style="rounded=1;whiteSpace=wrap;html=1;sketch=1;" parent="1" vertex="1">
          <mxGeometry x="190" y="210" width="60" height="50" as="geometry" />
        </mxCell>
        <mxCell id="r1hanVP5AK98Bbvc3f5i-10" style="edgeStyle=orthogonalEdgeStyle;shape=connector;rounded=0;sketch=1;orthogonalLoop=1;jettySize=auto;html=1;exitX=0.5;exitY=1;exitDx=0;exitDy=0;entryX=0.5;entryY=0;entryDx=0;entryDy=0;entryPerimeter=0;labelBackgroundColor=default;strokeColor=default;fontFamily=Helvetica;fontSize=11;fontColor=default;endArrow=classic;" parent="1" source="r1hanVP5AK98Bbvc3f5i-4" target="r1hanVP5AK98Bbvc3f5i-6" edge="1">
          <mxGeometry relative="1" as="geometry" />
        </mxCell>
        <mxCell id="r1hanVP5AK98Bbvc3f5i-4" value="3" style="rounded=1;whiteSpace=wrap;html=1;sketch=1;" parent="1" vertex="1">
          <mxGeometry x="275" y="210" width="60" height="50" as="geometry" />
        </mxCell>
        <mxCell id="r1hanVP5AK98Bbvc3f5i-5" value="" style="shape=cylinder3;whiteSpace=wrap;html=1;boundedLbl=1;backgroundOutline=1;size=15;sketch=1;fillColor=#d5e8d4;strokeColor=#82b366;" parent="1" vertex="1">
          <mxGeometry x="185" y="300" width="70" height="60" as="geometry" />
        </mxCell>
        <mxCell id="r1hanVP5AK98Bbvc3f5i-6" value="" style="shape=cylinder3;whiteSpace=wrap;html=1;boundedLbl=1;backgroundOutline=1;size=15;sketch=1;fillColor=#9AC7BF;strokeColor=#9AC7BF;" parent="1" vertex="1">
          <mxGeometry x="270" y="300" width="70" height="60" as="geometry" />
        </mxCell>
        <mxCell id="r1hanVP5AK98Bbvc3f5i-13" value="1" style="rounded=1;whiteSpace=wrap;html=1;sketch=1;" parent="1" vertex="1">
          <mxGeometry x="380" y="210" width="60" height="50" as="geometry" />
        </mxCell>
        <mxCell id="r1hanVP5AK98Bbvc3f5i-15" value="2" style="rounded=1;whiteSpace=wrap;html=1;sketch=1;" parent="1" vertex="1">
          <mxGeometry x="470" y="210" width="60" height="50" as="geometry" />
        </mxCell>
        <mxCell id="r1hanVP5AK98Bbvc3f5i-17" value="3" style="rounded=1;whiteSpace=wrap;html=1;sketch=1;" parent="1" vertex="1">
          <mxGeometry x="550" y="210" width="60" height="50" as="geometry" />
        </mxCell>
        <mxCell id="r1hanVP5AK98Bbvc3f5i-25" value="" style="rounded=1;whiteSpace=wrap;html=1;sketch=1;fontFamily=Helvetica;fontSize=11;fillColor=#fff2cc;strokeColor=#d6b656;" parent="1" vertex="1">
          <mxGeometry x="390" y="310" width="220" height="61" as="geometry" />
        </mxCell>
        <mxCell id="r1hanVP5AK98Bbvc3f5i-20" value="&lt;span style=&quot;background-color: rgb(248, 206, 204);&quot;&gt;A&lt;/span&gt;" style="text;html=1;strokeColor=none;fillColor=none;align=center;verticalAlign=middle;whiteSpace=wrap;rounded=0;sketch=1;fontFamily=Helvetica;fontSize=11;fontColor=default;" parent="1" vertex="1">
          <mxGeometry x="400" y="330" width="60" height="30" as="geometry" />
        </mxCell>
        <mxCell id="r1hanVP5AK98Bbvc3f5i-21" value="&lt;span style=&quot;background-color: rgb(185, 224, 165);&quot;&gt;B&lt;/span&gt;" style="text;html=1;strokeColor=none;fillColor=none;align=center;verticalAlign=middle;whiteSpace=wrap;rounded=0;sketch=1;fontFamily=Helvetica;fontSize=11;fontColor=default;" parent="1" vertex="1">
          <mxGeometry x="470" y="330" width="60" height="30" as="geometry" />
        </mxCell>
        <mxCell id="r1hanVP5AK98Bbvc3f5i-22" value="&lt;span style=&quot;background-color: rgb(154, 199, 191);&quot;&gt;C&lt;/span&gt;" style="text;html=1;strokeColor=none;fillColor=none;align=center;verticalAlign=middle;whiteSpace=wrap;rounded=0;sketch=1;fontFamily=Helvetica;fontSize=11;fontColor=default;" parent="1" vertex="1">
          <mxGeometry x="540" y="330" width="60" height="30" as="geometry" />
        </mxCell>
        <mxCell id="r1hanVP5AK98Bbvc3f5i-24" value="" style="endArrow=classic;html=1;rounded=0;labelBackgroundColor=default;sketch=1;strokeColor=default;fontFamily=Helvetica;fontSize=11;fontColor=default;shape=connector;exitX=0.5;exitY=1;exitDx=0;exitDy=0;entryX=0.5;entryY=0;entryDx=0;entryDy=0;" parent="1" source="r1hanVP5AK98Bbvc3f5i-13" target="r1hanVP5AK98Bbvc3f5i-22" edge="1">
          <mxGeometry width="50" height="50" relative="1" as="geometry">
            <mxPoint x="380" y="240" as="sourcePoint" />
            <mxPoint x="540" y="290" as="targetPoint" />
          </mxGeometry>
        </mxCell>
        <mxCell id="r1hanVP5AK98Bbvc3f5i-26" value="" style="endArrow=classic;html=1;rounded=0;labelBackgroundColor=default;sketch=1;strokeColor=default;fontFamily=Helvetica;fontSize=11;fontColor=default;shape=connector;" parent="1" target="r1hanVP5AK98Bbvc3f5i-21" edge="1">
          <mxGeometry width="50" height="50" relative="1" as="geometry">
            <mxPoint x="410" y="260" as="sourcePoint" />
            <mxPoint x="430" y="190" as="targetPoint" />
          </mxGeometry>
        </mxCell>
        <mxCell id="r1hanVP5AK98Bbvc3f5i-27" value="" style="endArrow=classic;html=1;rounded=0;labelBackgroundColor=default;sketch=1;strokeColor=default;fontFamily=Helvetica;fontSize=11;fontColor=default;shape=connector;" parent="1" source="r1hanVP5AK98Bbvc3f5i-13" target="r1hanVP5AK98Bbvc3f5i-20" edge="1">
          <mxGeometry width="50" height="50" relative="1" as="geometry">
            <mxPoint x="380" y="240" as="sourcePoint" />
            <mxPoint x="430" y="190" as="targetPoint" />
          </mxGeometry>
        </mxCell>
        <mxCell id="r1hanVP5AK98Bbvc3f5i-28" value="" style="endArrow=classic;html=1;rounded=0;labelBackgroundColor=default;sketch=1;strokeColor=default;fontFamily=Helvetica;fontSize=11;fontColor=default;shape=connector;exitX=0.5;exitY=1;exitDx=0;exitDy=0;entryX=0.5;entryY=0;entryDx=0;entryDy=0;" parent="1" source="r1hanVP5AK98Bbvc3f5i-17" edge="1">
          <mxGeometry width="50" height="50" relative="1" as="geometry">
            <mxPoint x="420" y="270" as="sourcePoint" />
            <mxPoint x="580" y="340" as="targetPoint" />
          </mxGeometry>
        </mxCell>
        <mxCell id="r1hanVP5AK98Bbvc3f5i-29" value="" style="endArrow=classic;html=1;rounded=0;labelBackgroundColor=default;sketch=1;strokeColor=default;fontFamily=Helvetica;fontSize=11;fontColor=default;shape=connector;entryX=0.5;entryY=0;entryDx=0;entryDy=0;exitX=0.5;exitY=1;exitDx=0;exitDy=0;" parent="1" source="r1hanVP5AK98Bbvc3f5i-17" target="r1hanVP5AK98Bbvc3f5i-21" edge="1">
          <mxGeometry width="50" height="50" relative="1" as="geometry">
            <mxPoint x="590" y="270" as="sourcePoint" />
            <mxPoint x="590" y="350" as="targetPoint" />
          </mxGeometry>
        </mxCell>
        <mxCell id="r1hanVP5AK98Bbvc3f5i-30" value="" style="endArrow=classic;html=1;rounded=0;labelBackgroundColor=default;sketch=1;strokeColor=default;fontFamily=Helvetica;fontSize=11;fontColor=default;shape=connector;entryX=0.75;entryY=0;entryDx=0;entryDy=0;exitX=0.5;exitY=1;exitDx=0;exitDy=0;" parent="1" source="r1hanVP5AK98Bbvc3f5i-15" target="r1hanVP5AK98Bbvc3f5i-20" edge="1">
          <mxGeometry width="50" height="50" relative="1" as="geometry">
            <mxPoint x="590" y="270" as="sourcePoint" />
            <mxPoint x="510" y="340" as="targetPoint" />
          </mxGeometry>
        </mxCell>
        <mxCell id="r1hanVP5AK98Bbvc3f5i-31" value="&lt;span style=&quot;background-color: rgb(248, 206, 204);&quot;&gt;A&lt;/span&gt;" style="text;html=1;strokeColor=none;fillColor=none;align=center;verticalAlign=middle;whiteSpace=wrap;rounded=0;sketch=1;fontFamily=Helvetica;fontSize=11;fontColor=default;" parent="1" vertex="1">
          <mxGeometry x="105" y="325.5" width="60" height="30" as="geometry" />
        </mxCell>
        <mxCell id="r1hanVP5AK98Bbvc3f5i-32" value="&lt;span style=&quot;background-color: rgb(185, 224, 165);&quot;&gt;B&lt;/span&gt;" style="text;html=1;strokeColor=none;fillColor=none;align=center;verticalAlign=middle;whiteSpace=wrap;rounded=0;sketch=1;fontFamily=Helvetica;fontSize=11;fontColor=default;" parent="1" vertex="1">
          <mxGeometry x="190" y="325.5" width="60" height="30" as="geometry" />
        </mxCell>
        <mxCell id="r1hanVP5AK98Bbvc3f5i-33" value="&lt;span style=&quot;background-color: rgb(154, 199, 191);&quot;&gt;C&lt;/span&gt;" style="text;html=1;strokeColor=none;fillColor=none;align=center;verticalAlign=middle;whiteSpace=wrap;rounded=0;sketch=1;fontFamily=Helvetica;fontSize=11;fontColor=default;" parent="1" vertex="1">
          <mxGeometry x="275" y="325.5" width="60" height="30" as="geometry" />
        </mxCell>
        <mxCell id="i5y0oGPPUUDTd2HLa1VV-3" value="" style="edgeStyle=orthogonalEdgeStyle;rounded=0;orthogonalLoop=1;jettySize=auto;html=1;fontFamily=Helvetica;fontSize=12;fontColor=default;" edge="1" parent="1" source="i5y0oGPPUUDTd2HLa1VV-1" target="i5y0oGPPUUDTd2HLa1VV-2">
          <mxGeometry relative="1" as="geometry" />
        </mxCell>
        <mxCell id="i5y0oGPPUUDTd2HLa1VV-1" value="SQL query" style="rounded=1;whiteSpace=wrap;html=1;sketch=1;fillColor=#dae8fc;strokeColor=#6c8ebf;" vertex="1" parent="1">
          <mxGeometry x="190" y="460" width="120" height="60" as="geometry" />
        </mxCell>
        <mxCell id="i5y0oGPPUUDTd2HLa1VV-5" value="" style="edgeStyle=orthogonalEdgeStyle;rounded=0;orthogonalLoop=1;jettySize=auto;html=1;fontFamily=Helvetica;fontSize=12;fontColor=default;" edge="1" parent="1" source="i5y0oGPPUUDTd2HLa1VV-2" target="i5y0oGPPUUDTd2HLa1VV-4">
          <mxGeometry relative="1" as="geometry" />
        </mxCell>
        <mxCell id="i5y0oGPPUUDTd2HLa1VV-2" value="&lt;div&gt;query optimizer&lt;/div&gt;" style="whiteSpace=wrap;html=1;fillColor=#dae8fc;strokeColor=#6c8ebf;rounded=1;sketch=1;" vertex="1" parent="1">
          <mxGeometry x="190" y="540" width="120" height="60" as="geometry" />
        </mxCell>
        <mxCell id="i5y0oGPPUUDTd2HLa1VV-15" style="edgeStyle=orthogonalEdgeStyle;rounded=0;orthogonalLoop=1;jettySize=auto;html=1;exitX=0.5;exitY=1;exitDx=0;exitDy=0;entryX=0.5;entryY=0;entryDx=0;entryDy=0;fontFamily=Helvetica;fontSize=12;fontColor=default;" edge="1" parent="1" source="i5y0oGPPUUDTd2HLa1VV-4" target="i5y0oGPPUUDTd2HLa1VV-10">
          <mxGeometry relative="1" as="geometry" />
        </mxCell>
        <mxCell id="i5y0oGPPUUDTd2HLa1VV-16" style="edgeStyle=orthogonalEdgeStyle;rounded=0;orthogonalLoop=1;jettySize=auto;html=1;exitX=0.5;exitY=1;exitDx=0;exitDy=0;entryX=0.5;entryY=0;entryDx=0;entryDy=0;fontFamily=Helvetica;fontSize=12;fontColor=default;" edge="1" parent="1" source="i5y0oGPPUUDTd2HLa1VV-4" target="i5y0oGPPUUDTd2HLa1VV-11">
          <mxGeometry relative="1" as="geometry" />
        </mxCell>
        <mxCell id="i5y0oGPPUUDTd2HLa1VV-17" style="edgeStyle=orthogonalEdgeStyle;rounded=0;orthogonalLoop=1;jettySize=auto;html=1;exitX=0.5;exitY=1;exitDx=0;exitDy=0;entryX=0.5;entryY=0;entryDx=0;entryDy=0;fontFamily=Helvetica;fontSize=12;fontColor=default;" edge="1" parent="1" source="i5y0oGPPUUDTd2HLa1VV-4" target="i5y0oGPPUUDTd2HLa1VV-12">
          <mxGeometry relative="1" as="geometry">
            <Array as="points">
              <mxPoint x="250" y="720" />
              <mxPoint x="325" y="720" />
            </Array>
          </mxGeometry>
        </mxCell>
        <mxCell id="i5y0oGPPUUDTd2HLa1VV-18" style="edgeStyle=orthogonalEdgeStyle;rounded=0;orthogonalLoop=1;jettySize=auto;html=1;exitX=0.5;exitY=1;exitDx=0;exitDy=0;entryX=0.041;entryY=0.958;entryDx=0;entryDy=0;entryPerimeter=0;fontFamily=Helvetica;fontSize=12;fontColor=default;" edge="1" parent="1" source="i5y0oGPPUUDTd2HLa1VV-4" target="i5y0oGPPUUDTd2HLa1VV-8">
          <mxGeometry relative="1" as="geometry">
            <Array as="points">
              <mxPoint x="250" y="720" />
              <mxPoint x="183" y="720" />
            </Array>
          </mxGeometry>
        </mxCell>
        <mxCell id="i5y0oGPPUUDTd2HLa1VV-4" value="consistent hashing" style="whiteSpace=wrap;html=1;fillColor=#dae8fc;strokeColor=#6c8ebf;rounded=1;sketch=1;" vertex="1" parent="1">
          <mxGeometry x="190" y="620" width="120" height="60" as="geometry" />
        </mxCell>
        <mxCell id="i5y0oGPPUUDTd2HLa1VV-9" value="VM" style="rounded=0;whiteSpace=wrap;html=1;sketch=1;strokeColor=#d6b656;fontFamily=Helvetica;fontSize=12;fillColor=#fff2cc;" vertex="1" parent="1">
          <mxGeometry x="165" y="777" width="40" height="20" as="geometry" />
        </mxCell>
        <mxCell id="i5y0oGPPUUDTd2HLa1VV-8" value="&lt;div&gt;Virtual Warehouse&lt;/div&gt;&lt;div&gt;&lt;br&gt;&lt;/div&gt;" style="text;html=1;strokeColor=none;fillColor=none;align=center;verticalAlign=middle;whiteSpace=wrap;rounded=0;sketch=1;fontFamily=Helvetica;fontSize=12;fontColor=default;" vertex="1" parent="1">
          <mxGeometry x="177.5" y="747" width="145" height="30" as="geometry" />
        </mxCell>
        <mxCell id="i5y0oGPPUUDTd2HLa1VV-10" value="VM" style="rounded=0;whiteSpace=wrap;html=1;sketch=1;strokeColor=#d6b656;fontFamily=Helvetica;fontSize=12;fillColor=#fff2cc;" vertex="1" parent="1">
          <mxGeometry x="210" y="777" width="40" height="20" as="geometry" />
        </mxCell>
        <mxCell id="i5y0oGPPUUDTd2HLa1VV-11" value="VM" style="rounded=0;whiteSpace=wrap;html=1;sketch=1;strokeColor=#d6b656;fontFamily=Helvetica;fontSize=12;fillColor=#fff2cc;" vertex="1" parent="1">
          <mxGeometry x="255" y="777" width="40" height="20" as="geometry" />
        </mxCell>
        <mxCell id="i5y0oGPPUUDTd2HLa1VV-12" value="VM" style="rounded=0;whiteSpace=wrap;html=1;sketch=1;strokeColor=#d6b656;fontFamily=Helvetica;fontSize=12;fillColor=#fff2cc;" vertex="1" parent="1">
          <mxGeometry x="305" y="777" width="40" height="20" as="geometry" />
        </mxCell>
        <mxCell id="i5y0oGPPUUDTd2HLa1VV-20" style="edgeStyle=orthogonalEdgeStyle;rounded=0;orthogonalLoop=1;jettySize=auto;html=1;exitX=0.5;exitY=1;exitDx=0;exitDy=0;fontFamily=Helvetica;fontSize=12;fontColor=default;" edge="1" parent="1" source="i5y0oGPPUUDTd2HLa1VV-13" target="i5y0oGPPUUDTd2HLa1VV-19">
          <mxGeometry relative="1" as="geometry" />
        </mxCell>
        <mxCell id="i5y0oGPPUUDTd2HLa1VV-13" value="cache" style="rounded=0;whiteSpace=wrap;html=1;sketch=1;strokeColor=#82b366;fontFamily=Helvetica;fontSize=12;fillColor=#d5e8d4;" vertex="1" parent="1">
          <mxGeometry x="177.5" y="817" width="140" height="30" as="geometry" />
        </mxCell>
        <mxCell id="i5y0oGPPUUDTd2HLa1VV-19" value="Data storage" style="rounded=1;whiteSpace=wrap;html=1;sketch=1;strokeColor=#6c8ebf;fontFamily=Helvetica;fontSize=12;fontColor=default;fillColor=#dae8fc;" vertex="1" parent="1">
          <mxGeometry x="187.5" y="895" width="120" height="60" as="geometry" />
        </mxCell>
      </root>
    </mxGraphModel>
  </diagram>
</mxfile>
